<?xml version="1.0" encoding="UTF-8"?>
<!DOCTYPE svg PUBLIC "-//W3C//DTD SVG 1.1//EN" "http://www.w3.org/Graphics/SVG/1.1/DTD/svg11.dtd">
<!-- Creator: CorelDRAW 2020 (64 Bit) -->
<svg xmlns="http://www.w3.org/2000/svg" xml:space="preserve" width="2480px" height="3508px" version="1.1" style="shape-rendering:geometricPrecision; text-rendering:geometricPrecision; image-rendering:optimizeQuality; fill-rule:evenodd; clip-rule:evenodd"
viewBox="0 0 2480 3507.43"
 xmlns:xlink="http://www.w3.org/1999/xlink"
 xmlns:xodm="http://www.corel.com/coreldraw/odm/2003">
 <defs>
  <style type="text/css">
   <![CDATA[
    .fil0 {fill:black;fill-rule:nonzero}
   ]]>
  </style>
 </defs>
 <g id="Camada_x0020_1">
  <metadata id="CorelCorpID_0Corel-Layer"/>
  <g id="_2042880655584">
   <path class="fil0" d="M-1632.89 1488.75l0 13.87 57.52 0 57.53 0 0 -13.87 0 -13.87 -57.53 0 -57.52 0 0 13.87zm112.73 0l0 12.05 -55.21 0 -55.2 0 0 -12.05 0 -12.06 55.2 0 55.21 0 0 12.06z"/>
   <path class="fil0" d="M-1623.55 1483.98c-0.92,0.21 -1.75,0.76 -2.14,1.42 -0.2,0.34 -0.21,0.39 -0.21,1.35 0,0.89 0.02,1.05 0.18,1.42 0.28,0.65 0.51,0.91 1.44,1.67 1.12,0.91 1.85,1.58 2.05,1.87 0.22,0.35 0.22,1.37 0,1.6 -0.2,0.2 -0.48,0.25 -0.82,0.14 -0.39,-0.14 -0.5,-0.38 -0.5,-1.16l0 -0.64 -1.15 0 -1.16 0 0 0.75c0,1.18 0.27,1.78 1.09,2.37 0.62,0.45 1.13,0.6 2.03,0.6 0.91,0 1.42,-0.15 2.05,-0.61 0.84,-0.61 1.13,-1.29 1.06,-2.53 -0.04,-0.79 -0.25,-1.41 -0.65,-1.96 -0.12,-0.15 -0.73,-0.7 -1.38,-1.2 -1.42,-1.11 -1.55,-1.24 -1.74,-1.72 -0.29,-0.72 -0.15,-1.32 0.35,-1.49 0.34,-0.11 0.62,-0.06 0.82,0.14 0.13,0.14 0.15,0.25 0.15,0.91l0 0.75 1.2 0 1.19 0 0 -0.69c0,-1.51 -0.55,-2.37 -1.82,-2.84 -0.58,-0.21 -1.47,-0.28 -2.04,-0.15l0 0z"/>
   <polygon class="fil0" points="-1618.91,1484.84 -1618.91,1485.78 -1617.87,1485.78 -1616.83,1485.78 -1616.83,1490.59 -1616.83,1495.41 -1615.63,1495.41 -1614.44,1495.41 -1614.44,1490.59 -1614.44,1485.78 -1613.39,1485.78 -1612.35,1485.78 -1612.35,1484.84 -1612.35,1483.9 -1615.63,1483.9 -1618.91,1483.9 "/>
   <path class="fil0" d="M-1611.42 1488.58c0,5.15 -0.01,5.03 0.47,5.63 0.91,1.12 2.75,1.51 4.27,0.91 0.47,-0.18 1.12,-0.69 1.36,-1.05 0.38,-0.59 0.38,-0.57 0.38,-5.52l0 -4.65 -1.2 0 -1.19 0 0 4.52c0,5.03 0.02,4.82 -0.52,5.02 -0.38,0.15 -0.82,0.04 -1.03,-0.23 -0.14,-0.19 -0.15,-0.34 -0.15,-4.75l0 -4.56 -1.2 0 -1.19 0 0 4.68 0 0z"/>
   <path class="fil0" d="M-1603.63 1489.65l0 5.76 1.92 0c1.05,0 2.05,-0.03 2.24,-0.06 0.9,-0.17 1.77,-0.72 2.19,-1.38l0.26 -0.41 0 -3.91 0 -3.9 -0.25 -0.4c-0.32,-0.5 -0.94,-0.96 -1.62,-1.22l-0.53 -0.2 -2.1 -0.02 -2.11 -0.01 0 5.75 0 0zm3.74 -3.79c0.53,0.18 0.51,0 0.51,3.79 0,3.8 0.02,3.62 -0.51,3.8 -0.14,0.04 -0.5,0.08 -0.8,0.08l-0.54 0 0 -3.88 0 -3.87 0.54 0c0.3,0 0.66,0.04 0.8,0.08z"/>
   <polygon class="fil0" points="-1595.83,1489.65 -1595.83,1495.41 -1592.93,1495.41 -1590.04,1495.41 -1590.04,1494.47 -1590.04,1493.53 -1591.73,1493.53 -1593.43,1493.53 -1593.43,1492.05 -1593.43,1490.56 -1592.43,1490.56 -1591.43,1490.56 -1591.43,1489.62 -1591.43,1488.69 -1592.43,1488.69 -1593.43,1488.69 -1593.43,1487.23 -1593.43,1485.78 -1591.73,1485.78 -1590.04,1485.78 -1590.04,1484.84 -1590.04,1483.9 -1592.93,1483.9 -1595.83,1483.9 -1595.83,1489.65 "/>
   <path class="fil0" d="M-1588.8 1489.65l0 5.76 1.2 0 1.19 0 0.01 -3.74c0.01,-3.34 0.02,-3.7 0.12,-3.35 0.47,1.75 1.65,5.71 2.04,6.86l0.08 0.23 1.65 0 1.66 0 0 -5.76 0 -5.75 -1.21 0 -1.21 0 0.05 3.86c0.02,2.12 0.03,3.83 0.02,3.8 -0.05,-0.09 -1.93,-6.12 -2.16,-6.95l-0.21 -0.71 -1.62 0 -1.61 0 0 5.75 0 0z"/>
   <polygon class="fil0" points="-1580,1484.84 -1580,1485.78 -1578.96,1485.78 -1577.91,1485.78 -1577.91,1490.59 -1577.91,1495.41 -1576.72,1495.41 -1575.52,1495.41 -1575.52,1490.59 -1575.52,1485.78 -1574.48,1485.78 -1573.43,1485.78 -1573.43,1484.84 -1573.43,1483.9 -1576.72,1483.9 -1580,1483.9 "/>
   <path class="fil0" d="M-1570.35 1483.98c-0.92,0.21 -1.75,0.76 -2.14,1.42 -0.2,0.34 -0.21,0.39 -0.21,1.35 0,0.89 0.02,1.05 0.18,1.42 0.28,0.65 0.51,0.91 1.44,1.67 1.12,0.91 1.85,1.58 2.05,1.87 0.22,0.35 0.22,1.37 0,1.6 -0.21,0.2 -0.48,0.25 -0.81,0.14 -0.4,-0.14 -0.51,-0.38 -0.51,-1.16l0 -0.64 -1.16 0 -1.15 0 0 0.75c0,1.18 0.28,1.78 1.09,2.37 0.62,0.45 1.13,0.6 2.03,0.6 0.91,0 1.42,-0.15 2.05,-0.61 0.84,-0.61 1.13,-1.29 1.06,-2.53 -0.04,-0.79 -0.25,-1.41 -0.65,-1.96 -0.12,-0.15 -0.73,-0.7 -1.38,-1.2 -1.42,-1.11 -1.55,-1.24 -1.74,-1.72 -0.29,-0.72 -0.15,-1.32 0.36,-1.49 0.33,-0.11 0.6,-0.06 0.81,0.14 0.13,0.14 0.15,0.25 0.15,0.91l0 0.75 1.2 0 1.19 0 0 -0.69c0,-1.51 -0.55,-2.37 -1.82,-2.84 -0.59,-0.21 -1.47,-0.28 -2.04,-0.15l0 0z"/>
   <path class="fil0" d="M-1560.69 1489.65l0 5.76 1.91 0c1.05,0 2.05,-0.03 2.24,-0.06 0.9,-0.17 1.77,-0.72 2.19,-1.38l0.26 -0.41 0 -3.91 0 -3.9 -0.25 -0.4c-0.32,-0.5 -0.93,-0.96 -1.62,-1.22l-0.53 -0.2 -2.1 -0.02 -2.1 -0.01 0 5.75 0 0zm3.73 -3.79c0.53,0.18 0.51,0 0.51,3.79 0,3.8 0.02,3.62 -0.51,3.8 -0.14,0.04 -0.5,0.08 -0.8,0.08l-0.54 0 0 -3.88 0 -3.87 0.54 0c0.3,0 0.66,0.04 0.8,0.08z"/>
   <path class="fil0" d="M-1552.9 1489.65l0 5.76 1.2 0 1.2 0 0 -2.1 0 -2.1 0.43 0.04c0.3,0.02 0.51,0.08 0.7,0.2 0.46,0.27 0.49,0.4 0.49,1.99 0,0.85 0.04,1.54 0.08,1.7l0.09 0.27 1.23 0 1.22 0 -0.09 -0.17c-0.06,-0.11 -0.11,-0.77 -0.14,-1.92l-0.04 -1.76 -0.24 -0.4c-0.14,-0.23 -0.34,-0.51 -0.44,-0.62 -0.12,-0.11 -0.2,-0.22 -0.2,-0.24 0,-0.01 0.13,-0.19 0.3,-0.38 0.53,-0.59 0.62,-0.93 0.62,-2.35 0,-1.72 -0.17,-2.17 -1.11,-2.88 -0.92,-0.68 -1.4,-0.79 -3.65,-0.79l-1.65 0 0 5.75 0 0zm3.6 -3.66c0.46,0.27 0.51,0.44 0.48,1.67 -0.02,0.98 -0.04,1.09 -0.18,1.24 -0.29,0.31 -0.55,0.41 -1.04,0.44l-0.46 0.02 0 -1.79 0 -1.81 0.46 0.04c0.35,0.02 0.54,0.07 0.74,0.19z"/>
   <path class="fil0" d="M-1543.13 1484.03c-0.01,0.08 -0.58,2.61 -1.23,5.62 -0.66,3.02 -1.22,5.55 -1.24,5.62l-0.04 0.14 1.26 0 1.26 0 0.22 -0.88 0.21 -0.88 1.18 0 1.18 0 0.22 0.88 0.22 0.88 1.26 0 1.25 0 -0.03 -0.14c-0.03,-0.07 -0.58,-2.6 -1.24,-5.62 -0.66,-3.01 -1.22,-5.54 -1.24,-5.62 -0.03,-0.13 -0.04,-0.13 -1.62,-0.13 -1.57,0 -1.58,0 -1.62,0.13l0 0zm2.05 5.14c0.21,1.42 0.38,2.6 0.38,2.62 0,0.03 -0.36,0.05 -0.81,0.05 -0.45,0 -0.81,-0.02 -0.81,-0.05 0,-0.03 0.18,-1.2 0.39,-2.62 0.21,-1.41 0.38,-2.6 0.39,-2.63 0.02,-0.19 0.1,0.3 0.46,2.63z"/>
   <path class="fil0" d="M-1538.15 1483.94c0,0.02 0.56,2.58 1.24,5.69 0.68,3.11 1.23,5.68 1.23,5.72 0,0.03 0.44,0.06 1.2,0.06 1.17,0 1.2,0 1.23,-0.14 0.03,-0.07 0.24,-1.39 0.48,-2.92 0.23,-1.53 0.44,-2.79 0.45,-2.81 0.02,-0.01 0.04,0.01 0.04,0.04 0,0.19 0.82,5.35 0.9,5.66l0.04 0.17 1.19 0c0.73,0 1.19,-0.03 1.19,-0.06 0,-0.04 2.23,-10.32 2.44,-11.26l0.05 -0.19 -1.23 0 -1.23 0 -0.61 3.33c-0.34,1.83 -0.62,3.32 -0.63,3.31 -0.02,-0.01 -0.29,-1.42 -0.61,-3.13 -0.31,-1.72 -0.59,-3.21 -0.61,-3.32l-0.05 -0.19 -0.88 0 -0.88 0 -0.05 0.19c-0.02,0.11 -0.3,1.6 -0.61,3.32 -0.32,1.71 -0.59,3.12 -0.61,3.13 0,0.01 -0.29,-1.48 -0.63,-3.31l-0.61 -3.33 -1.22 0c-0.67,0 -1.22,0.02 -1.22,0.04l0 0z"/>
  </g>
 </g>
</svg>
